<mxfile host="app.diagrams.net" modified="2020-11-02T06:11:36.285Z" agent="5.0 (Windows NT 10.0; Win64; x64) AppleWebKit/537.36 (KHTML, like Gecko) Chrome/86.0.4240.111 Safari/537.36" etag="gVQ7Lx7X1PzQznRcVzWT" version="13.8.8" type="github">
  <diagram id="5YJdf_GiZVkq7qKEYGZW" name="Page-1">
    <mxGraphModel dx="2249" dy="762" grid="1" gridSize="10" guides="1" tooltips="1" connect="1" arrows="1" fold="1" page="1" pageScale="1" pageWidth="827" pageHeight="1169" math="0" shadow="0">
      <root>
        <mxCell id="0" />
        <mxCell id="1" parent="0" />
        <mxCell id="QNq1hISHLKf9LOUZHScL-1" value="" style="ellipse;whiteSpace=wrap;html=1;aspect=fixed;" parent="1" vertex="1">
          <mxGeometry x="370" y="1050" width="80" height="80" as="geometry" />
        </mxCell>
        <mxCell id="QNq1hISHLKf9LOUZHScL-2" value="&lt;font style=&quot;font-size: 17px&quot;&gt;APP壳工程&lt;/font&gt;" style="rounded=0;whiteSpace=wrap;html=1;fillColor=#d5e8d4;strokeColor=#82b366;fontStyle=1" parent="1" vertex="1">
          <mxGeometry x="100" y="90" width="970" height="60" as="geometry" />
        </mxCell>
        <mxCell id="QNq1hISHLKf9LOUZHScL-4" value="顶层壳APP" style="text;html=1;align=center;verticalAlign=middle;resizable=0;points=[];autosize=1;fontStyle=1;fontSize=14;" parent="1" vertex="1">
          <mxGeometry x="-5" y="110" width="90" height="20" as="geometry" />
        </mxCell>
        <mxCell id="QNq1hISHLKf9LOUZHScL-5" value="" style="line;strokeWidth=1;fillColor=none;align=left;verticalAlign=middle;spacingTop=-1;spacingLeft=3;spacingRight=3;rotatable=0;labelPosition=right;points=[];portConstraint=eastwest;fontSize=14;dashed=1;" parent="1" vertex="1">
          <mxGeometry y="190" width="1110" height="8" as="geometry" />
        </mxCell>
      </root>
    </mxGraphModel>
  </diagram>
</mxfile>
